<svg width="100" height="100" viewBox="0 0 100 100" fill="none" xmlns="http://www.w3.org/2000/svg">
<defs>
  <linearGradient id="grad1" x1="0%" y1="0%" x2="100%" y2="100%">
    <stop offset="0%" style="stop-color:hsl(197, 71%, 52%);stop-opacity:1" />
    <stop offset="100%" style="stop-color:hsl(173, 43%, 62%);stop-opacity:1" />
  </linearGradient>
</defs>
<path d="M50 10C27.9086 10 10 27.9086 10 50C10 72.0914 27.9086 90 50 90" stroke="url(#grad1)" stroke-width="6" stroke-linecap="round"/>
<path d="M50 10C72.0914 10 90 27.9086 90 50C90 72.0914 72.0914 90 50 90" stroke="url(#grad1)" stroke-width="6" stroke-linecap="round" stroke-dasharray="5 15"/>
<path d="M35 35C40.5914 35 45 40.5914 45 45C45 49.4086 40.5914 55 35 55C29.4086 55 25 49.4086 25 45C25 40.5914 29.4086 35 35 35Z" fill="hsl(197, 71%, 52%)" fill-opacity="0.7"/>
<path d="M65 55C70.5914 55 75 60.5914 75 65C75 69.4086 70.5914 75 65 75C59.4086 75 55 69.4086 55 65C55 60.5914 59.4086 55 65 55Z" fill="hsl(173, 43%, 62%)" fill-opacity="0.7"/>
<circle cx="50" cy="50" r="12" fill="hsl(197, 71%, 52%)" fill-opacity="0.3"/>
</svg>
